<?xml version="1.0" encoding="UTF-8" standalone="no"?>
<svg
   xmlns:dc="http://purl.org/dc/elements/1.1/"
   xmlns:cc="http://creativecommons.org/ns#"
   xmlns:rdf="http://www.w3.org/1999/02/22-rdf-syntax-ns#"
   xmlns:svg="http://www.w3.org/2000/svg"
   xmlns="http://www.w3.org/2000/svg"
   xmlns:sodipodi="http://sodipodi.sourceforge.net/DTD/sodipodi-0.dtd"
   xmlns:inkscape="http://www.inkscape.org/namespaces/inkscape"
   inkscape:version="1.0 (4035a4fb49, 2020-05-01)"
   sodipodi:docname="garbage-can.svg"
   version="1.1"
   width="512"
   viewBox="0 0 512 512"
   height="512"
   enable-background="new 0 0 512 512"
   id="Capa_1">
  <metadata
     id="metadata13">
    <rdf:RDF>
      <cc:Work
         rdf:about="">
        <dc:format>image/svg+xml</dc:format>
        <dc:type
           rdf:resource="http://purl.org/dc/dcmitype/StillImage" />
        <dc:title></dc:title>
      </cc:Work>
    </rdf:RDF>
  </metadata>
  <defs
     id="defs11" />
  <sodipodi:namedview
     inkscape:current-layer="Capa_1"
     inkscape:window-maximized="1"
     inkscape:window-y="-8"
     inkscape:window-x="-8"
     inkscape:cy="256"
     inkscape:cx="256"
     inkscape:zoom="1.7382812"
     inkscape:pagecheckerboard="true"
     showgrid="false"
     id="namedview9"
     inkscape:window-height="1057"
     inkscape:window-width="1920"
     inkscape:pageshadow="2"
     inkscape:pageopacity="0"
     guidetolerance="10"
     gridtolerance="10"
     objecttolerance="10"
     borderopacity="1"
     bordercolor="#666666"
     pagecolor="#ffffff" />
  <g
     style="fill:#ffffff"
     id="g6">
    <path
       style="fill:#ffffff"
       id="path2"
       d="m 442.154,145 c 10.585,0 17.924,-10.701 13.955,-20.514 C 442.016,89.645 407.834,65 368,65 H 349.586 C 342.719,28.727 310.916,0 272,0 H 240 C 201.109,0 169.285,28.708 162.414,65 H 144 C 104.166,65 69.984,89.645 55.891,124.486 51.922,134.299 59.261,145 69.846,145 Z M 240,30 h 32 c 21.9,0 40.49,14.734 46.748,35 H 193.252 C 199.51,44.734 218.1,30 240,30 Z" />
    <path
       style="fill:#ffffff"
       id="path4"
       d="M 111.053,470.196 C 112.722,493.638 132.439,512 155.939,512 H 356.06 c 23.5,0 43.217,-18.362 44.886,-41.804 L 421.969,175 H 90.031 Z M 297.019,255.251 c 0.414,-8.274 7.469,-14.655 15.73,-14.232 8.274,0.414 14.646,7.457 14.232,15.73 l -8,160 C 318.58,424.768 311.952,431 304.012,431 c -8.637,0 -15.42,-7.223 -14.994,-15.749 z m -97.768,-14.232 c 8.263,-0.415 15.317,5.959 15.73,14.232 l 8,160 c 0.426,8.53 -6.362,15.749 -14.994,15.749 -7.94,0 -14.568,-6.232 -14.969,-14.251 l -8,-160 c -0.413,-8.273 5.959,-15.316 14.233,-15.73 z" />
  </g>
</svg>
