<?xml version="1.0" encoding="UTF-8" standalone="no"?>
<svg
   xmlns:dc="http://purl.org/dc/elements/1.1/"
   xmlns:cc="http://creativecommons.org/ns#"
   xmlns:rdf="http://www.w3.org/1999/02/22-rdf-syntax-ns#"
   xmlns:svg="http://www.w3.org/2000/svg"
   xmlns="http://www.w3.org/2000/svg"
   xmlns:sodipodi="http://sodipodi.sourceforge.net/DTD/sodipodi-0.dtd"
   xmlns:inkscape="http://www.inkscape.org/namespaces/inkscape"
   inkscape:version="1.0 (4035a4fb49, 2020-05-01)"
   sodipodi:docname="edit.svg"
   xml:space="preserve"
   style="enable-background:new 0 0 477.873 477.873;"
   viewBox="0 0 477.873 477.873"
   y="0px"
   x="0px"
   id="Capa_1"
   version="1.1"><metadata
   id="metadata49"><rdf:RDF><cc:Work
       rdf:about=""><dc:format>image/svg+xml</dc:format><dc:type
         rdf:resource="http://purl.org/dc/dcmitype/StillImage" /></cc:Work></rdf:RDF></metadata><defs
   id="defs47" /><sodipodi:namedview
   inkscape:current-layer="Capa_1"
   inkscape:window-maximized="1"
   inkscape:window-y="-8"
   inkscape:window-x="-8"
   inkscape:cy="238.93649"
   inkscape:cx="238.93649"
   inkscape:zoom="1.8624196"
   showgrid="false"
   id="namedview45"
   inkscape:window-height="1057"
   inkscape:window-width="1920"
   inkscape:pageshadow="2"
   inkscape:pageopacity="0"
   guidetolerance="10"
   gridtolerance="10"
   objecttolerance="10"
   borderopacity="1"
   bordercolor="#666666"
   pagecolor="#ffffff" />
<g
   style="fill:#ffffff"
   id="g6">
	<g
   style="fill:#ffffff"
   id="g4">
		<path
   style="fill:#ffffff"
   id="path2"
   d="m 392.533,238.937 c -9.426,0 -17.067,7.641 -17.067,17.067 V 426.67 c 0,9.426 -7.641,17.067 -17.067,17.067 H 51.2 c -9.426,0 -17.067,-7.641 -17.067,-17.067 V 85.337 C 34.133,75.911 41.774,68.27 51.2,68.27 H 256 c 9.426,0 17.067,-7.641 17.067,-17.067 0,-9.426 -7.641,-17.066 -17.067,-17.066 H 51.2 C 22.923,34.137 0,57.06 0,85.337 V 426.67 c 0,28.277 22.923,51.2 51.2,51.2 h 307.2 c 28.277,0 51.2,-22.923 51.2,-51.2 V 256.003 c 0,-9.425 -7.641,-17.066 -17.067,-17.066 z" />
	</g>
</g>
<g
   style="fill:#ffffff"
   id="g12">
	<g
   style="fill:#ffffff"
   id="g10">
		<path
   style="fill:#ffffff"
   id="path8"
   d="M 458.742,19.142 C 446.488,6.886 429.867,0.002 412.536,0.004 395.195,-0.046 378.557,6.85 366.337,19.153 L 141.534,243.937 c -1.865,1.879 -3.272,4.163 -4.113,6.673 l -34.133,102.4 c -2.979,8.943 1.856,18.607 10.799,21.585 1.735,0.578 3.552,0.873 5.38,0.875 1.832,-0.003 3.653,-0.297 5.393,-0.87 l 102.4,-34.133 c 2.515,-0.84 4.8,-2.254 6.673,-4.13 L 458.735,111.535 C 484.25,86.023 484.253,44.657 458.742,19.142 Z M 434.603,87.419 212.736,309.286 146.449,331.421 168.516,265.219 390.468,43.353 c 12.202,-12.178 31.967,-12.158 44.145,0.044 5.817,5.829 9.095,13.72 9.12,21.955 0.021,8.279 -3.266,16.223 -9.13,22.067 z" />
	</g>
</g>
<g
   style="fill:#ffffff"
   id="g14">
</g>
<g
   style="fill:#ffffff"
   id="g16">
</g>
<g
   style="fill:#ffffff"
   id="g18">
</g>
<g
   style="fill:#ffffff"
   id="g20">
</g>
<g
   style="fill:#ffffff"
   id="g22">
</g>
<g
   style="fill:#ffffff"
   id="g24">
</g>
<g
   style="fill:#ffffff"
   id="g26">
</g>
<g
   style="fill:#ffffff"
   id="g28">
</g>
<g
   style="fill:#ffffff"
   id="g30">
</g>
<g
   style="fill:#ffffff"
   id="g32">
</g>
<g
   style="fill:#ffffff"
   id="g34">
</g>
<g
   style="fill:#ffffff"
   id="g36">
</g>
<g
   style="fill:#ffffff"
   id="g38">
</g>
<g
   style="fill:#ffffff"
   id="g40">
</g>
<g
   style="fill:#ffffff"
   id="g42">
</g>
</svg>
