<svg width="32" height="32" viewBox="0 0 32 32" fill="none" xmlns="http://www.w3.org/2000/svg">
<path d="M20.5528 14.7863L8.39281 5.7789C8.16958 5.61354 7.9048 5.51343 7.62801 5.48973C7.35121 5.46602 7.07327 5.51964 6.82517 5.64463C6.57706 5.76961 6.36854 5.96104 6.22284 6.19758C6.07715 6.43411 6 6.70646 6 6.98427V24.999C5.99951 25.277 6.07637 25.5497 6.22196 25.7865C6.36756 26.0234 6.57616 26.215 6.82444 26.3401C7.07273 26.4652 7.35091 26.5187 7.62788 26.4948C7.90486 26.4708 8.1697 26.3703 8.39281 26.2044L20.5528 17.197C20.7411 17.0575 20.8942 16.8758 20.9996 16.6665C21.105 16.4572 21.1599 16.2261 21.1599 15.9917C21.1599 15.7573 21.105 15.5262 20.9996 15.3169C20.8942 15.1076 20.7411 14.9259 20.5528 14.7864V14.7863ZM8 24.0062V7.97683L18.8199 15.9916L8 24.0062Z" fill="white"/>
<path d="M24 5.5H26V26.5H24V5.5Z" fill="white"/>
</svg>
