<svg width="39" height="39" viewBox="0 0 39 39" fill="none" xmlns="http://www.w3.org/2000/svg">
<path d="M19.5 0C8.73147 0 0 8.73147 0 19.5C0 30.2685 8.73147 39 19.5 39C30.2685 39 39 30.2685 39 19.5C39 8.73147 30.2685 0 19.5 0ZM25.7722 19.8003L16.266 26.7167C16.2138 26.7542 16.1524 26.7766 16.0884 26.7814C16.0244 26.7862 15.9603 26.7732 15.9032 26.744C15.8461 26.7148 15.7981 26.6703 15.7646 26.6156C15.7311 26.5609 15.7133 26.498 15.7132 26.4338V12.6097C15.713 12.5454 15.7306 12.4823 15.764 12.4274C15.7975 12.3725 15.8455 12.3279 15.9027 12.2986C15.96 12.2693 16.0242 12.2564 16.0883 12.2614C16.1524 12.2664 16.2139 12.289 16.266 12.3268L25.7722 19.2388C25.8171 19.2706 25.8538 19.3127 25.879 19.3615C25.9043 19.4104 25.9175 19.4646 25.9175 19.5196C25.9175 19.5746 25.9043 19.6288 25.879 19.6776C25.8538 19.7265 25.8171 19.7686 25.7722 19.8003Z" fill="white"/>
</svg>
