<svg width="32" height="32" viewBox="0 0 32 32" fill="none" xmlns="http://www.w3.org/2000/svg">
<path d="M11.4472 17.2137L23.6072 26.2211C23.8304 26.3865 24.0952 26.4866 24.372 26.5103C24.6488 26.534 24.9267 26.4804 25.1748 26.3554C25.4229 26.2304 25.6315 26.039 25.7772 25.8024C25.9229 25.5659 26 25.2935 26 25.0157L26 7.00098C26.0005 6.72298 25.9236 6.45031 25.778 6.21348C25.6324 5.97664 25.4238 5.78497 25.1756 5.6599C24.9273 5.53483 24.6491 5.48128 24.3721 5.50525C24.0951 5.52921 23.8303 5.62975 23.6072 5.79561L11.4472 14.803C11.2589 14.9425 11.1058 15.1242 11.0004 15.3335C10.895 15.5428 10.8401 15.7739 10.8401 16.0083C10.8401 16.2427 10.895 16.4738 11.0004 16.6831C11.1058 16.8924 11.2589 17.0741 11.4472 17.2136L11.4472 17.2137ZM24 7.9938L24 24.0232L13.1801 16.0084L24 7.9938Z" fill="white"/>
<path d="M8 26.5L6 26.5L6 5.5L8 5.5L8 26.5Z" fill="white"/>
</svg>
