<svg width="28" height="27" viewBox="0 0 28 27" fill="none" xmlns="http://www.w3.org/2000/svg">
<path d="M17.045 2.77881L16.9552 2.70344C16.787 2.57991 16.578 2.51946 16.3671 2.53332C16.1562 2.54718 15.9576 2.63442 15.8084 2.77881L15.729 2.86656C15.6015 3.02986 15.5392 3.23205 15.5538 3.43602C15.5684 3.63999 15.6588 3.83205 15.8084 3.97694L18.1079 6.20106H9.91671L9.64487 6.20556C5.58254 6.34394 2.33337 9.57381 2.33337 13.5406C2.33337 15.4418 3.08004 17.1743 4.30737 18.4793L4.39137 18.5569C4.55645 18.6931 4.76809 18.7652 4.98522 18.7594C5.20236 18.7536 5.40951 18.6702 5.56649 18.5254C5.72346 18.3807 5.81907 18.1848 5.83475 17.9759C5.85044 17.767 5.78508 17.5599 5.65137 17.3948L5.41804 17.1349C4.55273 16.1228 4.08071 14.8512 4.08337 13.5394C4.08337 10.4221 6.69554 7.89419 9.91671 7.89419H17.9445L15.8072 9.96419L15.729 10.0519C15.6015 10.2152 15.5392 10.4174 15.5538 10.6214C15.5684 10.8254 15.6588 11.0174 15.8084 11.1623C15.8895 11.2408 15.9858 11.3031 16.0919 11.3456C16.198 11.3881 16.3118 11.41 16.4267 11.41C16.5416 11.41 16.6554 11.3881 16.7615 11.3456C16.8676 11.3031 16.964 11.2408 17.045 11.1623L20.7574 7.57019L20.8355 7.48244C20.9633 7.31927 21.0257 7.11715 21.0113 6.91318C20.997 6.70922 20.9068 6.51709 20.7574 6.37206L17.045 2.77881ZM23.6017 8.51744C23.4328 8.38283 23.2176 8.31417 22.9988 8.32498C22.7799 8.3358 22.5732 8.42531 22.4194 8.57587C22.2656 8.72642 22.1759 8.92708 22.168 9.13827C22.1601 9.34945 22.2346 9.55583 22.3767 9.71669C23.3696 10.7593 23.9194 12.1239 23.9167 13.5394C23.9167 16.6579 21.3045 19.1858 18.0834 19.1858H9.98437L12.2069 17.0359L12.2932 16.9392C12.4053 16.7917 12.465 16.6133 12.4636 16.4305C12.4621 16.2477 12.3995 16.0702 12.285 15.9244L12.2069 15.8378L12.1089 15.7557C11.9568 15.6468 11.7721 15.5885 11.5827 15.5897C11.3933 15.591 11.2094 15.6516 11.0589 15.7624L10.9702 15.8378L7.25787 19.4311L7.17271 19.5267C7.06046 19.674 7.00052 19.8524 7.00178 20.0352C7.00304 20.218 7.06544 20.3955 7.17971 20.5414L7.25787 20.6281L10.9702 24.2213L11.0682 24.3023C11.41 24.5498 11.8965 24.5217 12.2069 24.2202C12.3565 24.0753 12.4469 23.8832 12.4614 23.6793C12.476 23.4753 12.4138 23.2731 12.2862 23.1098L12.2069 23.0232L9.99137 20.8789H18.0834L18.3552 20.8744C22.4175 20.7361 25.6667 17.5051 25.6667 13.5394C25.6697 11.7108 24.9635 9.94722 23.6869 8.59506L23.6017 8.51744Z" fill="white"/>
</svg>
