<svg width="27" height="31" viewBox="0 0 27 31" fill="none" xmlns="http://www.w3.org/2000/svg">
<g filter="url(#filter0_d)">
<path d="M22.5898 22.4726C22.5751 22.4905 22.5594 22.5074 22.5432 22.5241C22.5401 22.5273 22.5374 22.5309 22.5342 22.5342C22.5313 22.537 22.5281 22.5394 22.5252 22.5423C22.5083 22.5587 22.4908 22.5749 22.4725 22.59C22.4619 22.5986 22.4507 22.6062 22.4399 22.6142C22.4287 22.6226 22.4178 22.6313 22.4062 22.639C22.3937 22.6474 22.3807 22.6547 22.3678 22.6624C22.3571 22.6687 22.3464 22.6756 22.3354 22.6815C22.3225 22.6885 22.3091 22.6943 22.2959 22.7005C22.2842 22.7061 22.2727 22.712 22.2606 22.7169C22.2477 22.7222 22.2346 22.7265 22.2216 22.7312C22.2086 22.7358 22.1958 22.7408 22.1826 22.7449C22.1696 22.7488 22.1564 22.7516 22.1432 22.755C22.1297 22.7584 22.1163 22.7622 22.1025 22.7649C22.0875 22.7679 22.0723 22.7697 22.0572 22.7718C22.0451 22.7736 22.0331 22.7759 22.0208 22.7771C21.9931 22.7798 21.9654 22.7813 21.9375 22.7813H17.7188C17.495 22.7813 17.2804 22.6924 17.1222 22.5341C16.9639 22.3759 16.875 22.1613 16.875 21.9375C16.875 21.7137 16.9639 21.4991 17.1222 21.3409C17.2804 21.1827 17.495 21.0938 17.7188 21.0938H19.9005L4.46588 5.65916C4.38753 5.58081 4.32538 5.48779 4.28298 5.38542C4.24057 5.28305 4.21875 5.17333 4.21875 5.06252C4.21875 4.95172 4.24057 4.842 4.28298 4.73962C4.32538 4.63725 4.38753 4.54424 4.46588 4.46588C4.54424 4.38753 4.63725 4.32538 4.73962 4.28298C4.842 4.24057 4.95172 4.21875 5.06252 4.21875C5.17333 4.21875 5.28305 4.24057 5.38542 4.28298C5.48779 4.32538 5.58081 4.38753 5.65916 4.46588L21.0938 19.9005V17.7188C21.0938 17.495 21.1827 17.2804 21.3409 17.1222C21.4991 16.9639 21.7137 16.875 21.9375 16.875C22.1613 16.875 22.3759 16.9639 22.5341 17.1222C22.6924 17.2804 22.7813 17.495 22.7813 17.7188V21.937C22.7813 21.965 22.7798 21.9931 22.7771 22.0211C22.776 22.0323 22.7738 22.0434 22.7722 22.0546C22.77 22.0706 22.768 22.0868 22.7648 22.1027C22.7623 22.116 22.7585 22.1288 22.7553 22.1419C22.752 22.1556 22.7489 22.1693 22.7448 22.1827C22.7409 22.1956 22.736 22.2081 22.7316 22.2207C22.7267 22.2341 22.7223 22.2475 22.7168 22.2608C22.7121 22.2724 22.7063 22.2835 22.701 22.2949C22.6947 22.3086 22.6886 22.3223 22.6814 22.3356C22.6757 22.3462 22.6692 22.3563 22.663 22.3667C22.6551 22.38 22.6476 22.3934 22.6389 22.4063C22.6315 22.4175 22.6231 22.4281 22.6151 22.4389C22.6066 22.4501 22.5988 22.4617 22.5897 22.4727L22.5898 22.4726ZM15.8865 11.9573C15.9973 11.9575 16.107 11.9357 16.2094 11.8933C16.3118 11.8509 16.4048 11.7887 16.4831 11.7102L21.0938 7.09955V9.28127C21.0938 9.50505 21.1827 9.71966 21.3409 9.87789C21.4991 10.0361 21.7137 10.125 21.9375 10.125C22.1613 10.125 22.3759 10.0361 22.5341 9.87789C22.6924 9.71966 22.7813 9.50505 22.7813 9.28127V5.06305C22.7813 5.03499 22.7798 5.00694 22.7771 4.97899C22.776 4.96771 22.7738 4.95663 22.7722 4.94545C22.77 4.92942 22.768 4.91328 22.7648 4.89736C22.7623 4.88407 22.7585 4.8712 22.7553 4.85812C22.752 4.84441 22.7489 4.8307 22.7448 4.81731C22.7409 4.80444 22.736 4.79199 22.7316 4.77934C22.7267 4.76594 22.7223 4.75255 22.7168 4.73926C22.7121 4.72766 22.7063 4.71658 22.701 4.70519C22.6947 4.69148 22.6886 4.67777 22.6814 4.66448C22.6757 4.65383 22.6692 4.6436 22.6629 4.63316C22.6551 4.61997 22.6476 4.60658 22.639 4.59371C22.6314 4.58243 22.623 4.57188 22.6148 4.56102C22.6066 4.54984 22.5988 4.53834 22.5898 4.52748C22.575 4.50969 22.5595 4.49252 22.5432 4.47601C22.5401 4.47263 22.5374 4.46915 22.5342 4.46588C22.5311 4.46283 22.5277 4.4603 22.5246 4.45724C22.5079 4.44084 22.4906 4.42515 22.4727 4.4102C22.4615 4.40113 22.4497 4.39301 22.4382 4.38446C22.4276 4.37666 22.4174 4.36843 22.4065 4.36126C22.3934 4.3524 22.3797 4.3447 22.3661 4.33669C22.356 4.33067 22.3461 4.32435 22.3357 4.31876C22.3223 4.31137 22.3084 4.30536 22.2945 4.29893C22.2834 4.29365 22.2724 4.28796 22.2608 4.28311C22.2476 4.27773 22.234 4.2733 22.2205 4.26845C22.208 4.26402 22.1956 4.25917 22.1828 4.25526C22.1696 4.25126 22.1561 4.2483 22.1426 4.24493C22.1293 4.24155 22.1162 4.23786 22.1026 4.23512C22.0875 4.23217 22.0722 4.23037 22.0569 4.22816C22.0449 4.22647 22.0331 4.22415 22.0208 4.22299C21.9932 4.22022 21.9655 4.21882 21.9377 4.21877H17.7188C17.495 4.21877 17.2804 4.30767 17.1222 4.4659C16.9639 4.62413 16.875 4.83875 16.875 5.06252C16.875 5.2863 16.9639 5.50091 17.1222 5.65914C17.2804 5.81738 17.495 5.90627 17.7188 5.90627H19.9005L15.2898 10.5169C15.1718 10.6349 15.0915 10.7853 15.0589 10.949C15.0263 11.1126 15.043 11.2823 15.1069 11.4365C15.1708 11.5907 15.2789 11.7224 15.4177 11.8151C15.5564 11.9079 15.7196 11.9573 15.8865 11.9573ZM10.5169 15.2898L4.46588 21.3409C4.38753 21.4192 4.32538 21.5123 4.28298 21.6146C4.24057 21.717 4.21875 21.8267 4.21875 21.9375C4.21875 22.0483 4.24057 22.1581 4.28298 22.2604C4.32538 22.3628 4.38753 22.4558 4.46588 22.5342C4.54424 22.6125 4.63725 22.6747 4.73962 22.7171C4.842 22.7595 4.95172 22.7813 5.06252 22.7813C5.17333 22.7813 5.28305 22.7595 5.38542 22.7171C5.48779 22.6747 5.58081 22.6125 5.65916 22.5342L11.7102 16.4831C11.7886 16.4047 11.8507 16.3117 11.8931 16.2094C11.9355 16.107 11.9574 15.9973 11.9574 15.8865C11.9574 15.7757 11.9355 15.6659 11.8931 15.5636C11.8507 15.4612 11.7886 15.3682 11.7102 15.2898C11.6319 15.2115 11.5388 15.1493 11.4365 15.1069C11.3341 15.0645 11.2244 15.0427 11.1136 15.0427C11.0028 15.0427 10.8931 15.0645 10.7907 15.1069C10.6883 15.1493 10.5953 15.2115 10.5169 15.2898Z" fill="white"/>
</g>
<defs>
<filter id="filter0_d" x="-4" y="0" width="35" height="35" filterUnits="userSpaceOnUse" color-interpolation-filters="sRGB">
<feFlood flood-opacity="0" result="BackgroundImageFix"/>
<feColorMatrix in="SourceAlpha" type="matrix" values="0 0 0 0 0 0 0 0 0 0 0 0 0 0 0 0 0 0 127 0"/>
<feOffset dy="4"/>
<feGaussianBlur stdDeviation="2"/>
<feColorMatrix type="matrix" values="0 0 0 0 0 0 0 0 0 0 0 0 0 0 0 0 0 0 0.25 0"/>
<feBlend mode="normal" in2="BackgroundImageFix" result="effect1_dropShadow"/>
<feBlend mode="normal" in="SourceGraphic" in2="effect1_dropShadow" result="shape"/>
</filter>
</defs>
</svg>
