<svg width="21" height="17" viewBox="0 0 21 17" fill="none" xmlns="http://www.w3.org/2000/svg">
<path d="M0 15.7857C0 15.4637 0.0921874 15.1548 0.256282 14.9271C0.420376 14.6994 0.642936 14.5714 0.875 14.5714H6.125C6.35706 14.5714 6.57962 14.6994 6.74372 14.9271C6.90781 15.1548 7 15.4637 7 15.7857C7 16.1078 6.90781 16.4166 6.74372 16.6443C6.57962 16.8721 6.35706 17 6.125 17H0.875C0.642936 17 0.420376 16.8721 0.256282 16.6443C0.0921874 16.4166 0 16.1078 0 15.7857ZM0 8.5C0 8.17795 0.0921874 7.86909 0.256282 7.64137C0.420376 7.41365 0.642936 7.28571 0.875 7.28571H13.125C13.3571 7.28571 13.5796 7.41365 13.7437 7.64137C13.9078 7.86909 14 8.17795 14 8.5C14 8.82205 13.9078 9.13091 13.7437 9.35863C13.5796 9.58635 13.3571 9.71429 13.125 9.71429H0.875C0.642936 9.71429 0.420376 9.58635 0.256282 9.35863C0.0921874 9.13091 0 8.82205 0 8.5ZM0 1.21429C0 0.892237 0.0921874 0.583379 0.256282 0.355656C0.420376 0.127934 0.642936 0 0.875 0H20.125C20.3571 0 20.5796 0.127934 20.7437 0.355656C20.9078 0.583379 21 0.892237 21 1.21429C21 1.53633 20.9078 1.84519 20.7437 2.07292C20.5796 2.30064 20.3571 2.42857 20.125 2.42857H0.875C0.642936 2.42857 0.420376 2.30064 0.256282 2.07292C0.0921874 1.84519 0 1.53633 0 1.21429Z" fill="#DBDBDB"/>
</svg>
