<?xml version="1.0" encoding="UTF-8" standalone="no"?>
<svg
   xmlns:dc="http://purl.org/dc/elements/1.1/"
   xmlns:cc="http://creativecommons.org/ns#"
   xmlns:rdf="http://www.w3.org/1999/02/22-rdf-syntax-ns#"
   xmlns:svg="http://www.w3.org/2000/svg"
   xmlns="http://www.w3.org/2000/svg"
   xmlns:sodipodi="http://sodipodi.sourceforge.net/DTD/sodipodi-0.dtd"
   xmlns:inkscape="http://www.inkscape.org/namespaces/inkscape"
   inkscape:version="1.0 (4035a4fb49, 2020-05-01)"
   sodipodi:docname="carbon_music-add.svg"
   id="svg8"
   version="1.1"
   fill="none"
   viewBox="0 0 48 48"
   height="48"
   width="48">
  <metadata
     id="metadata14">
    <rdf:RDF>
      <cc:Work
         rdf:about="">
        <dc:format>image/svg+xml</dc:format>
        <dc:type
           rdf:resource="http://purl.org/dc/dcmitype/StillImage" />
      </cc:Work>
    </rdf:RDF>
  </metadata>
  <defs
     id="defs12" />
  <sodipodi:namedview
     inkscape:current-layer="svg8"
     inkscape:window-maximized="0"
     inkscape:window-y="0"
     inkscape:window-x="0"
     inkscape:cy="18.020246"
     inkscape:cx="25.168921"
     inkscape:zoom="6.5554691"
     showgrid="false"
     id="namedview10"
     inkscape:window-height="915"
     inkscape:window-width="1721"
     inkscape:pageshadow="2"
     inkscape:pageopacity="0"
     guidetolerance="10"
     gridtolerance="10"
     objecttolerance="10"
     borderopacity="1"
     bordercolor="#666666"
     pagecolor="#ffffff" />
  <path
     style="stroke-width:0.466426"
     id="path2"
     fill="#cfc5ac"
     d="m 34.06633,17.330213 h -2.743142 v -2.743137 h -1.371571 v 2.743137 h -2.743095 v 1.371585 h 2.743095 v 2.743142 h 1.371571 v -2.743142 h 2.743142 z" />
  <path
     style="stroke-width:0.466426"
     id="path4"
     fill="#cfc5ac"
     d="m 29.951617,23.502296 v 5.181755 C 29.536545,28.437125 29.06303,28.3055 28.580046,28.302795 c -0.542546,0 -1.072872,0.16087 -1.523998,0.462274 -0.451081,0.301404 -0.802672,0.729863 -1.010325,1.231084 -0.207606,0.501267 -0.261944,1.052816 -0.156066,1.584914 0.105832,0.532098 0.367077,1.020912 0.750712,1.404547 0.383635,0.383635 0.872402,0.64488 1.404547,0.750712 0.532099,0.105879 1.083647,0.05154 1.584914,-0.156113 0.501221,-0.207606 0.929633,-0.559197 1.231084,-1.010277 0.301404,-0.451127 0.462274,-0.9815 0.462274,-1.524046 v -7.543594 z m -1.371571,8.915165 c -0.271273,0 -0.536436,-0.08041 -0.761999,-0.231114 -0.225517,-0.150748 -0.401359,-0.364931 -0.505139,-0.615542 -0.103826,-0.250657 -0.130972,-0.526407 -0.07808,-0.792457 0.05294,-0.266095 0.183586,-0.510456 0.37538,-0.702296 0.191841,-0.191795 0.436201,-0.32244 0.702297,-0.37538 0.266049,-0.05289 0.5418,-0.02575 0.792457,0.07808 0.25061,0.103826 0.464793,0.279622 0.615541,0.505139 0.150703,0.225563 0.231114,0.490726 0.231114,0.761999 -5.13e-4,0.363626 -0.145198,0.712185 -0.402292,0.969279 -0.25714,0.257094 -0.605653,0.401779 -0.969279,0.402292 z" />
  <path
     style="stroke-width:0.466426"
     id="path6"
     fill="#cfc5ac"
     d="m 25.151166,17.330232 h -4.800499 c -0.363625,3.63e-4 -0.712278,0.144983 -0.969419,0.4021 -0.25714,0.257141 -0.401779,0.605794 -0.402152,0.969466 v 9.982253 c -0.415072,-0.246926 -0.888587,-0.378551 -1.371562,-0.381256 -0.542541,0 -1.0729,0.16087 -1.524008,0.462274 -0.451103,0.301404 -0.802699,0.729863 -1.010319,1.231084 -0.207625,0.501267 -0.261945,1.052816 -0.156104,1.584914 0.105846,0.532098 0.367105,1.020912 0.75074,1.404547 0.383635,0.383635 0.872417,0.64488 1.404529,0.750712 0.532117,0.105879 1.08367,0.05154 1.584937,-0.156066 0.501221,-0.207653 0.929633,-0.559244 1.231037,-1.010324 0.301451,-0.451127 0.462321,-0.9815 0.462321,-1.524046 V 18.701798 h 4.800499 z m -7.543632,15.087229 c -0.271273,0 -0.53645,-0.08041 -0.762004,-0.231114 -0.225554,-0.150748 -0.401349,-0.364931 -0.505162,-0.615542 -0.103808,-0.250657 -0.130972,-0.526407 -0.07805,-0.792457 0.05292,-0.266095 0.183548,-0.510456 0.375365,-0.702296 0.191818,-0.191795 0.436211,-0.32244 0.702269,-0.375333 0.266059,-0.05294 0.541828,-0.02579 0.792439,0.07803 0.250657,0.103826 0.46484,0.279622 0.615542,0.505139 0.150702,0.225563 0.23116,0.490773 0.23116,0.761999 -3.73e-4,0.363672 -0.144965,0.712325 -0.402105,0.969466 -0.257141,0.25714 -0.605794,0.401779 -0.969457,0.402105 z" />
</svg>
