<svg width="27" height="26" viewBox="0 0 27 26" fill="none" xmlns="http://www.w3.org/2000/svg">
<path d="M13.5 24.7577C13.9724 24.7473 14.4258 24.5762 14.7799 24.2749C15.1341 23.9735 15.3661 23.5613 15.435 23.1111H11.49C11.5608 23.5735 11.8037 23.9955 12.1735 24.2984C12.5432 24.6013 13.0146 24.7645 13.5 24.7577V24.7577Z" fill="white"/>
<path d="M24.3825 20.0995C23.6592 19.4786 23.0261 18.7669 22.5 17.9834C21.9256 16.9019 21.5814 15.7208 21.4875 14.5095V10.9417C21.4844 10.5083 21.4443 10.0759 21.3675 9.64893C20.7772 9.5353 20.2098 9.33043 19.6875 9.04226C19.8866 9.65965 19.9877 10.3025 19.9875 10.9489V14.5167C20.0794 15.9944 20.5015 17.4355 21.225 18.7417C21.7428 19.5318 22.3572 20.2592 23.055 20.9084H3.84748C4.54528 20.2592 5.15967 19.5318 5.67748 18.7417C6.40093 17.4355 6.82305 15.9944 6.91498 14.5167V10.9417C6.91103 10.1059 7.07833 9.27749 7.40731 8.504C7.73628 7.73052 8.22047 7.02711 8.83214 6.43407C9.44381 5.84103 10.1709 5.37 10.9719 5.04795C11.7729 4.7259 12.632 4.55915 13.5 4.55726C14.7703 4.55824 16.0121 4.92 17.07 5.59726C16.9534 5.18486 16.8879 4.76061 16.875 4.33337V3.87837C16.0919 3.50741 15.2506 3.26339 14.385 3.15615V2.24615C14.385 1.99044 14.2795 1.7452 14.0917 1.56438C13.9039 1.38356 13.6493 1.28198 13.3837 1.28198C13.1182 1.28198 12.8635 1.38356 12.6757 1.56438C12.488 1.7452 12.3825 1.99044 12.3825 2.24615V3.19226C10.4443 3.45555 8.67041 4.38519 7.38839 5.80954C6.10638 7.2339 5.40277 9.0568 5.40748 10.9417V14.5095C5.31354 15.7208 4.96931 16.9019 4.39498 17.9834C3.87814 18.7651 3.25512 19.4767 2.54248 20.0995C2.46247 20.1672 2.39836 20.2505 2.35439 20.3439C2.31042 20.4373 2.28761 20.5386 2.28748 20.6411V21.6234C2.28748 21.8149 2.36649 21.9986 2.50715 22.1341C2.6478 22.2695 2.83856 22.3456 3.03748 22.3456H23.8875C24.0864 22.3456 24.2772 22.2695 24.4178 22.1341C24.5585 21.9986 24.6375 21.8149 24.6375 21.6234V20.6411C24.6373 20.5386 24.6145 20.4373 24.5706 20.3439C24.5266 20.2505 24.4625 20.1672 24.3825 20.0995V20.0995Z" fill="white"/>
<path d="M22.5 7.94439C24.5711 7.94439 26.25 6.32764 26.25 4.33328C26.25 2.33892 24.5711 0.722168 22.5 0.722168C20.4289 0.722168 18.75 2.33892 18.75 4.33328C18.75 6.32764 20.4289 7.94439 22.5 7.94439Z" fill="white"/>
</svg>
