<?xml version="1.0" encoding="UTF-8" standalone="no"?>
<svg
   xmlns:dc="http://purl.org/dc/elements/1.1/"
   xmlns:cc="http://creativecommons.org/ns#"
   xmlns:rdf="http://www.w3.org/1999/02/22-rdf-syntax-ns#"
   xmlns:svg="http://www.w3.org/2000/svg"
   xmlns="http://www.w3.org/2000/svg"
   xmlns:sodipodi="http://sodipodi.sourceforge.net/DTD/sodipodi-0.dtd"
   xmlns:inkscape="http://www.inkscape.org/namespaces/inkscape"
   inkscape:version="1.0 (4035a4fb49, 2020-05-01)"
   sodipodi:docname="blue.svg"
   version="1.1"
   viewBox="0 0 72 72"
   id="emoji">
  <metadata
     id="metadata30">
    <rdf:RDF>
      <cc:Work
         rdf:about="">
        <dc:format>image/svg+xml</dc:format>
        <dc:type
           rdf:resource="http://purl.org/dc/dcmitype/StillImage" />
        <dc:title></dc:title>
      </cc:Work>
    </rdf:RDF>
  </metadata>
  <defs
     id="defs28" />
  <sodipodi:namedview
     inkscape:current-layer="emoji"
     inkscape:window-maximized="1"
     inkscape:window-y="-8"
     inkscape:window-x="-8"
     inkscape:cy="36"
     inkscape:cx="36"
     inkscape:zoom="12.361111"
     inkscape:pagecheckerboard="true"
     showgrid="false"
     id="namedview26"
     inkscape:window-height="1057"
     inkscape:window-width="1920"
     inkscape:pageshadow="2"
     inkscape:pageopacity="0"
     guidetolerance="10"
     gridtolerance="10"
     objecttolerance="10"
     borderopacity="1"
     bordercolor="#666666"
     pagecolor="#ffffff" />
  <g
     id="hair" />
  <g
     id="skin" />
  <g
     id="skin-shadow" />
  <path
     style="stroke:#ffffff;stroke-opacity:1"
     fill="none"
     stroke="#000000"
     stroke-linecap="round"
     stroke-linejoin="round"
     stroke-miterlimit="10"
     stroke-width="2"
     d="M 25.1656,56.2934 C 28.394,58.0206 32.0826,59 36,59 48.7025,59 59,48.7025 59,36 59,23.2975 48.7025,13 36,13 23.2975,13 13,23.2975 13,36 c 0,2.0737 0.2744,4.0832 0.7889,5.9944"
     id="path10" />
  <path
     style="stroke:#ffffff;stroke-opacity:1"
     fill="none"
     stroke="#000000"
     stroke-linecap="round"
     stroke-linejoin="round"
     stroke-miterlimit="10"
     stroke-width="2"
     d="m 41,31.0774 c 0.4132,0.344 2.2456,1.7915 4.9091,1.6364 2.1608,-0.1259 3.61,-1.2333 4.0909,-1.6364"
     id="path12" />
  <path
     style="stroke:#ffffff;stroke-opacity:1"
     fill="none"
     stroke="#000000"
     stroke-linecap="round"
     stroke-linejoin="round"
     stroke-miterlimit="10"
     stroke-width="2"
     d="m 23,31.0774 c 0.4132,0.344 2.2456,1.7915 4.9091,1.6364 2.1608,-0.1259 3.61,-1.2333 4.0909,-1.6364"
     id="path14" />
  <path
     style="stroke:#ffffff;stroke-opacity:1"
     fill="none"
     stroke="#000000"
     stroke-miterlimit="10"
     stroke-width="2"
     d="m 18.9757,55.0045 c 1.3489,-0.0915 2.5814,-0.7028 3.4702,-1.7214 2.9266,-3.3525 2.5576,-9.3267 2.5405,-9.5792 -0.0356,-0.5252 -0.4899,-0.9214 -1.0148,-0.8858 -0.2529,0.0172 -6.2222,0.4585 -9.1501,3.811 h -5e-4 c -1.833,2.1017 -1.6153,5.3044 0.486,7.1383 1.0165,0.8894 2.3198,1.3286 3.6687,1.2371 z"
     id="path16" />
  <path
     style="stroke:#ffffff;stroke-opacity:1"
     fill="none"
     stroke="#000000"
     stroke-linecap="round"
     stroke-linejoin="round"
     stroke-miterlimit="10"
     stroke-width="2"
     d="M 42,46 C 40.7159,45.3624 38.0153,44.9692 35.1579,45.0019 32.5344,45.0319 30.1682,45.4165 29,46"
     id="path18" />
  <path
     style="stroke:#ffffff;stroke-opacity:1"
     fill="none"
     stroke="#000000"
     stroke-linecap="round"
     stroke-linejoin="round"
     stroke-miterlimit="10"
     stroke-width="2"
     d="m 51.1367,26.3462 c -1.7485,0.552 -3.6373,0.4369 -5.3048,-0.3243 -1.7477,-0.5852 -3.2117,-1.8029 -4.1098,-3.4111"
     id="path20" />
  <path
     style="stroke:#ffffff;stroke-opacity:1"
     fill="none"
     stroke="#000000"
     stroke-linecap="round"
     stroke-linejoin="round"
     stroke-miterlimit="10"
     stroke-width="2"
     d="m 20.8998,26.3355 c 3.6145,0.9881 7.4488,-0.5261 9.413,-3.7176"
     id="path22" />
</svg>
