<?xml version="1.0" encoding="UTF-8" standalone="no"?>
<svg
   xmlns:dc="http://purl.org/dc/elements/1.1/"
   xmlns:cc="http://creativecommons.org/ns#"
   xmlns:rdf="http://www.w3.org/1999/02/22-rdf-syntax-ns#"
   xmlns:svg="http://www.w3.org/2000/svg"
   xmlns="http://www.w3.org/2000/svg"
   xmlns:sodipodi="http://sodipodi.sourceforge.net/DTD/sodipodi-0.dtd"
   xmlns:inkscape="http://www.inkscape.org/namespaces/inkscape"
   id="emoji"
   viewBox="0 0 72 72"
   version="1.1"
   sodipodi:docname="sad.svg"
   inkscape:version="1.0 (4035a4fb49, 2020-05-01)">
  <metadata
     id="metadata39">
    <rdf:RDF>
      <cc:Work
         rdf:about="">
        <dc:format>image/svg+xml</dc:format>
        <dc:type
           rdf:resource="http://purl.org/dc/dcmitype/StillImage" />
        <dc:title />
      </cc:Work>
    </rdf:RDF>
  </metadata>
  <defs
     id="defs37" />
  <sodipodi:namedview
     inkscape:document-rotation="0"
     pagecolor="#ffffff"
     bordercolor="#666666"
     borderopacity="1"
     objecttolerance="10"
     gridtolerance="10"
     guidetolerance="10"
     inkscape:pageopacity="0"
     inkscape:pageshadow="2"
     inkscape:window-width="1920"
     inkscape:window-height="1057"
     id="namedview35"
     showgrid="false"
     inkscape:pagecheckerboard="true"
     inkscape:zoom="12.361111"
     inkscape:cx="36"
     inkscape:cy="36"
     inkscape:window-x="-8"
     inkscape:window-y="-8"
     inkscape:window-maximized="1"
     inkscape:current-layer="emoji" />
  <path
     id="path17"
     d="m 29.7,32.02 c -5.762,9.541 -3.86,14.27 -3.696,23.98 0,1.803 -5.146,-2.412 -6,-4 -2.17,-5.92 -0.3989,-13.81 2.5,-19.18 2.887,-1.622 6.992,-2.084 7.196,-0.8031 z"
     fill="#92d3f5"
     style="fill:#ffffff;fill-opacity:1" />
  <path
     d="M 36.833984 42.005859 L 40.492188 45.169922 C 39.902251 43.549634 38.477048 42.300919 36.833984 42.005859 z M 35.126953 42.041016 C 33.462833 42.394638 31.959089 43.62143 31.410156 45.251953 L 35.126953 42.041016 z M 31.396484 45.302734 C 31.264502 45.711167 31.1875 46.143772 31.1875 46.59375 C 31.1875 49.21275 33.468688 51.580078 35.929688 51.580078 L 35.929688 51.578125 C 38.390688 51.578125 40.794921 49.374859 40.794922 46.755859 C 40.794922 46.260802 40.693418 45.789342 40.546875 45.335938 C 38.553297 46.569032 33.412689 46.558622 31.396484 45.302734 z "
     style="fill:#ffffff"
     id="path13" />
  <path
     id="path19"
     d="m 42.3,32.4 c 5.762,9.541 3.86,14.27 3.696,23.98 0,1.803 5.146,-2.412 6,-4 2.17,-5.92 0.3989,-13.81 -2.5,-19.18 -2.887,-1.622 -6.992,-2.084 -7.196,-0.8031 z"
     fill="#92d3f5"
     style="fill:#ffffff;fill-opacity:1" />
  <g
     id="hair" />
  <g
     id="skin" />
  <g
     id="skin-shadow" />
  <path
     id="path25"
     d="m 40.5,32.82 c 0.4132,-0.344 2.246,-1.792 4.909,-1.636 2.161,0.1259 3.61,1.233 4.091,1.636"
     stroke-width="2"
     stroke-miterlimit="10"
     stroke-linejoin="round"
     stroke-linecap="round"
     stroke="#000000"
     fill="none"
     style="stroke:#ffffff;stroke-opacity:1" />
  <path
     id="path27"
     d="m 22.5,32.82 c 0.4132,-0.344 2.246,-1.792 4.909,-1.636 2.161,0.1259 3.61,1.233 4.091,1.636"
     stroke-width="2"
     stroke-miterlimit="10"
     stroke-linejoin="round"
     stroke-linecap="round"
     stroke="#000000"
     fill="none"
     style="stroke:#ffffff;stroke-opacity:1" />
  <circle
     id="circle29"
     stroke-width="2"
     stroke-miterlimit="10"
     stroke="#000000"
     fill="none"
     r="23"
     cy="36"
     cx="36"
     style="stroke:#ffffff;stroke-opacity:1" />
  <circle
     id="circle31"
     stroke-width="2"
     stroke-miterlimit="10"
     stroke-linejoin="round"
     stroke-linecap="round"
     stroke="#000000"
     fill-rule="evenodd"
     fill="none"
     r="4.7589998"
     cy="46.599998"
     cx="36"
     style="stroke:#ffffff;stroke-opacity:1" />
</svg>
